{"title":"The.Diary.of.a.Teenage.Girl.2015.BRRip.720p-PRiSTiNE [P2PDL]","uid":13111728,"size":697928141,"categoryP":"video","categoryS":"movies","magnet":"?xt=urn:btih:6ea1ae66e164e484c555f9e2edecf7f6fca0babd&amp;dn=The.Diary.of.a.Teenage.Girl.2015.BRRip.720p-PRiSTiNE+%5BP2PDL%5D+&amp;tr=udp%3A%2F%2Ftracker.leechers-paradise.org%3A6969&amp;tr=udp%3A%2F%2Fzer0day.ch%3A1337&amp;tr=udp%3A%2F%2Fopen.demonii.com%3A1337&amp;tr=udp%3A%2F%2Ftracker.coppersurfer.tk%3A6969&amp;tr=udp%3A%2F%2Fexodus.desync.com%3A6969","seeders":1,"leechers":0,"uploader":"VYTOP2PDL","files":7,"time":1451491692,"description":"____    ____ ____    ____ .___________.  ______   \r\n     /   /      /   / |           | /  __    \r\n    /   /      /   /  `---|  |----`|  |  |  | \r\n        /     _    _/       |  |     |  |  |  | \r\n       /        |  |         |  |     |  `--'  | \r\n    __/         |__|         |__|      ______/  \r\n                                                  \r\nPresenting Small Encodes with quality for years!\r\n                                                                                                   \r\n                                                                                                   \r\n\r\nThe.Diary.of.a.Teenage.Girl.2015.BRRip.720p.x264.AAC-PRiSTiNE\r\n\r\n\r\nGenre: Drama, Romance  \nhttp://www.imdb.com/title/tt3172532/\r\n\r\n\r\nFormat                                   : MPEG-4\r\nFile size                                : 652 MiB\r\nDuration                                 : 1h 42mn\r\nOverall bit rate                         : 892 Kbps\r\n\r\nVideo\r\nFormat                                   : AVC\r\nBit rate                                 : 809 Kbps\r\nWidth                                    : 1 280 pixels\r\nHeight                                   : 528 pixels\r\nDisplay aspect ratio                     : 2.40:1\r\nFrame rate mode                          : Constant\r\nFrame rate                               : 23.976 fps\r\nBit depth                                : 8 bits\r\nStream size                              : 591 MiB (91%)\r\nWriting library                          : x264 \r\n\r\nAudi\r\nFormat                                   : AAC\r\nBit rate mode                            : Variable\r\nBit rate                                 : 79.9 Kbps\r\nChannel(s)                               : 2 channels\r\nChannel positions                        : Front: L R\r\nSampling rate                            : 48.0 KHz\r\nStream size                              : 58.4 MiB (9%)\r\nLanguage                                 : English\r\n\r\nSubtitle                                 : Yes (English)\r\n\r\nScreen Shots: (Click to view)\r\n \nhttp://ititli.com/SF \nhttp://ititli.com/SJ \nhttp://ititli.com/S5 \nhttp://ititli.com/SB \nhttp://ititli.com/SN \nhttp://ititli.com/SP \nhttp://ititli.com/Sf\r\n\r\n----------------------------------------------------------------------------------------------------\r\n\r\n\r\nEncoder Notes: Looking For Early Access To Anything You Can Provide WEBDL, DVDScr, DVDR, BluRay,\r\nDirect Audio, Music Releases and Seedboxes. If You Got anything to offer please contact us.\r\n\r\nSupport us by donating BC - 1FgwdzPsd1y25Gea8wP1qni35uGCtmkRCD\r\n\r\nSend some love!\r\nFind us and join us!","torrent":{"xt":"urn:btih:6ea1ae66e164e484c555f9e2edecf7f6fca0babd","amp;dn":"The.Diary.of.a.Teenage.Girl.2015.BRRip.720p-PRiSTiNE+%5BP2PDL%5D+","amp;tr":["udp%3A%2F%2Ftracker.leechers-paradise.org%3A6969","udp%3A%2F%2Fzer0day.ch%3A1337","udp%3A%2F%2Fopen.demonii.com%3A1337","udp%3A%2F%2Ftracker.coppersurfer.tk%3A6969","udp%3A%2F%2Fexodus.desync.com%3A6969"],"infoHash":"6ea1ae66e164e484c555f9e2edecf7f6fca0babd","infoHashBuffer":{"type":"Buffer","data":[110,161,174,102,225,100,228,132,197,85,249,226,237,236,247,246,252,160,186,189]},"announce":[],"urlList":[]}}